# xmcd CD database file
#
# Track frame offsets:
#	150
#	12859
#	27977
#	44487
#	56650
#
# Disc length: 1374 seconds
#
# Revision: 0
# Processed by: cddbd v1.5.1PL0 Copyright (c) Steve Scherf et al.
# Submitted via: CDex 1.51
#
DISCID=3a055c05
DTITLE=Braxton - Under The Radar
DYEAR=2005
DGENRE=Rock
TTITLE0=Unbelievable
TTITLE1=Let's Get It On
TTITLE2=Ghost Town
TTITLE3=Set It Off
TTITLE4=Always Knew You'd Be A Failure
EXTD=YEAR: 2005
EXTT0=
EXTT1=
EXTT2=
EXTT3=
EXTT4=
PLAYORDER=
